<?xml version="1.0" standalone="no"?><!DOCTYPE svg PUBLIC "-//W3C//DTD SVG 1.1//EN" "http://www.w3.org/Graphics/SVG/1.1/DTD/svg11.dtd"><svg t="1776237079220" class="icon" viewBox="0 0 1024 1024" version="1.1" xmlns="http://www.w3.org/2000/svg" p-id="1449" xmlns:xlink="http://www.w3.org/1999/xlink" width="200" height="200"><path d="M277.7 127h-0.3c-13.2 0-21.4 14.2-15.1 25.7 10.4 19 15.7 40.4 15.4 62-0.9 66.4-54 121.3-120.3 124.2-23.2 1.1-46.3-4.3-66.7-15.6-10-5.5-22.4 1.4-22.4 12.8v0.3c0 116.6 95.4 211 212.4 209.4 112.8-1.6 204.8-93.6 206.4-206.4 1.6-117-92.8-212.4-209.4-212.4" fill="#FDA419" p-id="1450"></path><path d="M277.7 127c116.6 0 211 95.4 209.3 212.4v-1.1c-33.7 82.5-114.8 140.5-209.4 140.5-94.6 0-175.6-58.1-209.4-140.5V336.1c0-11.4 12.4-18.3 22.4-12.8 20.3 11.3 43.4 16.7 66.7 15.6 66.3-2.9 119.4-57.8 120.3-124.2 0.3-21.7-5-43-15.4-62-6.3-11.6 1.9-25.7 15.1-25.7h0.4z m0 0" fill="#FFB132" p-id="1451"></path><path d="M277.7 127c73.5 0 138.2 37.9 175.5 95.2-5.9 110.3-97.3 198-209.1 198-72.2 0-135.9-36.5-173.5-92.1 4.4-6.5 13.1-8.6 20-4.7 20.3 11.3 43.4 16.7 66.7 15.6 66.3-2.9 119.4-57.8 120.3-124.2 0.3-21.7-5-43-15.4-62-6.3-11.6 1.9-25.7 15.1-25.7h0.4z m0 0" fill="#FFCB64" p-id="1452"></path><path d="M277.7 127c30.3 0 60.2 6.5 87.6 19.2 2.9 12.7 4.4 25.9 4.4 39.5 0 97.1-78.7 175.9-175.9 175.9-40.8 0.1-80.3-14.1-111.8-40.1 3-0.2 5.9 0.4 8.5 1.9 20.3 11.3 43.4 16.7 66.7 15.6 66.3-2.9 119.4-57.8 120.3-124.2 0.3-21.7-5-43-15.4-62-6.3-11.6 1.9-25.7 15.1-25.7h0.5z m0 0" fill="#FFE081" p-id="1453"></path><path d="M851.4 532.3c0-4.9 0.6-9.3 0.6-14.2 0-134.6-109.3-243.8-243.8-243.8-74.1 0-140.1 32.7-184.6 85.2-17.3-5.6-35.2-8.6-54.3-8.6-94.4 0-170.4 76.5-170.4 170.4 0 2.5 0 4.9 0.6 7.4-83.8 4.2-150.5 74-150.5 159.1 0 85.2 66.7 154.3 150 159.3l616 0.6c88.3 0 159.9-71.6 159.9-159.9 0-75.9-52.5-139.5-123.5-155.5" fill="#DDE5FF" p-id="1454"></path><path d="M582.9 483.2c82.1 91.3 206.2 95.7 268.5 50 0-4.9 0.6-9.3 0.6-14.2 0-134.6-109.3-243.8-243.8-243.8-69.1 0-131.5 29-175.9 75.3l-8.6 9.3c0 1.2 57.4 20.9 159.2 123.4z m0 0" fill="#ECF1FF" p-id="1455"></path><path d="M486 657C279.2 508.8 199.6 528.6 199.6 528.6 115.7 532.9 49 602.7 49 687.8c0 85.2 66.7 154.3 150 159.3l616 0.6c88.3 0 159.9-71.6 159.9-159.9 2.3-53.9-34.6-101.6-32.1-95.7C958.9 715.5 665.3 822.5 486 657z m0 0" fill="#C5D3F9" p-id="1456"></path></svg>